<?xml version="1.0" encoding="utf-8"?>
<!-- Generator: Adobe Illustrator 13.0.0, SVG Export Plug-In  -->
<!DOCTYPE svg PUBLIC "-//W3C//DTD SVG 1.1//EN" "http://www.w3.org/Graphics/SVG/1.1/DTD/svg11.dtd" [
	<!ENTITY ns_flows "http://ns.adobe.com/Flows/1.0/">
]>
<svg version="1.1"
	 xmlns="http://www.w3.org/2000/svg" xmlns:xlink="http://www.w3.org/1999/xlink" xmlns:a="http://ns.adobe.com/AdobeSVGViewerExtensions/3.0/"
	 x="0px" y="0px" width="387px" height="387px" viewBox="-0.394 -0.894 387 387" enable-background="new -0.394 -0.894 387 387"
	 xml:space="preserve">
<defs>
</defs>
<path d="M385.777,192.875C385.777,86.356,299.431,0,192.875,0C86.365,0,0,86.356,0,192.875
	c0,106.518,86.365,192.892,192.875,192.892C299.431,385.766,385.777,299.393,385.777,192.875z"/>
<g>
	<g>
		<path fill-rule="evenodd" clip-rule="evenodd" fill="#FFFFFF" d="M280.67,27.807c-5.639-4.885-12.133,3.275-18.524,7.324
			c-6.327,4-14.826,7.596-19.316,11.879c-8.435,8.077-12.831,21.631-17.96,33.492c-10.854,25.02-19.759,43.488-30.771,68.471
			l-18.713,43.721c0.158-0.081,0.193-0.069-0.085,0.2l0.085-0.2c-0.338,0.174-1.248,0.778-0.875,0.2
			c-9.64-5.629-19.646,1.487-29.426-0.188c-6.825-4.819-11.399-13.14-19.118-17.546c-14.769-8.453-49.513-5.328-68.998,10.449
			c0,0-50.953,45.635,4.396,74.684c9.508,5.008,28.287-9.621,42.999-16.417c25.933-11.974,46.764-25.34,68.621-20.257
			c-7.041,10.523-2.729,25.133-10.26,38.932c-6.664,12.18-16.915,21.462-23.185,32.061c-10.928,18.506-16.36,43.452,7.465,59.095
			c21.02,9.449,39.78,4.424,39.78,4.424c33.171-16.491,34.358-55.649,18.62-78.636c-2.383-3.502-4.528-15.719-4.528-15.719
			s-2.993-8.284-1.177-13.236c20.22-55.33,48.308-122.031,70.561-178.547c2.815-7.192,9.177-17.037,4.623-24.718L280.67,27.807z
			 M114.943,217.348c-10.655,15.363-59.82,32.72-63.632,5.385c-0.969-7.003,6.514-16.812,15.748-23.777
			c10.439-7.869,35.29-18.054,47.282-6.476C122.822,200.649,119.904,210.213,114.943,217.348z M188.835,332
			c-7.002,8.075-16.388,11.936-23.787,8.488c-20.737-9.656-16.077-53.578,7.521-56.703c8.849-1.167,21.631,8.152,24.955,19.673
			C199.858,311.667,196.225,323.527,188.835,332z M202.315,204.829c-6.344,11.107-17.122,9.413-20.972,0.696
			C172.476,185.381,214.053,184.289,202.315,204.829z"/>
	</g>
</g>
<path fill-rule="evenodd" clip-rule="evenodd" fill="#FFFFFF" d="M341.158,111.489c-23.815,11.823-46.708,21.801-72.453,32.983
	c-24.069,10.467-24.775,43.206-24.775,43.206c7.202-3.088,14.93-6.627,22.536-9.827c14.119-5.949,31.524-10.072,44.334-17.678
	c13.574-8.095,18.705-20.238,30.339-31.194C341.139,128.979,361.5,109.342,341.158,111.489z"/>
</svg>
